<svg version="1" xmlns="http://www.w3.org/2000/svg" width="1365.333" height="1365.333" viewBox="0 0 1024.000000 1024.000000"><path d="M480 44.1C341 54.2 216.4 122.7 134.3 234 51 347.1 22.9 492.5 58.1 628.9c17.2 66.8 47.7 126.6 92.8 182.1 12.9 15.9 49.3 51.8 66.1 65.1 61.6 48.9 127.4 79.9 202.5 95.3 49.5 10.2 105.1 11.8 157.5 4.5 81.4-11.2 158.3-43.8 223.4-94.6 17.4-13.6 29.2-24.1 46.6-42 37.1-37.8 64-76.1 87.1-123.8 24.4-50.5 38.8-102 44.9-160.5 1.7-15.7 2.5-82.2 1.1-89.4-1.6-8.8-5.4-16-11.5-22.2-25-24.9-66.5-11-71.6 24.1-.5 3.8-1 20.3-1 36.5-.1 42.2-2.7 66.3-11 100.1-38.3 155-169.1 270.4-328 289.4-21.3 2.6-58.1 3.1-79 1.1-9.6-.9-21.5-2.3-26.5-3.2-96.2-15.9-183.4-67.4-242.7-143.5-42.6-54.7-68.8-118-78.5-189.9-2.3-16.9-2.6-71.2-.5-88 6.1-49 18.2-89.3 39.6-132 44.6-88.5 123.9-157.6 217.4-189.4 47.9-16.3 95-23 143.2-20.6 46.2 2.4 84 10.8 129 28.8 14.2 5.7 17.6 6.7 24.1 7 12.9.7 23.2-3.2 32.1-12 19.5-19.4 15.2-52.3-8.6-66.3-10.9-6.4-46.5-19.4-72.4-26.5C587.1 46.1 529.5 40.5 480 44.1z"/><path d="M930.9 129c-2.5.4-7 1.8-10 3-4.9 2.1-24.4 21.3-207.1 203.9L512 537.5l-51.7-51.6c-47.5-47.3-52.3-51.8-58-54.3-3.5-1.5-9-3.2-12.3-3.8-16.2-2.8-36 7.1-43.3 21.8-3.8 7.7-4.9 13.5-4.6 22.6.4 7.3.9 9.4 4.3 16.4 3.8 7.7 5.4 9.4 72 75.8 65.5 65.3 68.4 68 75.6 71.5 7.1 3.4 8 3.6 18 3.6 9.8 0 11-.2 17.7-3.4 6.9-3.2 12.7-8.9 223.8-220 119.1-119.2 218.2-219 220.1-221.6 14.5-20.5 6.7-50.4-16.1-61.5-9.1-4.5-16.7-5.7-26.6-4z"/></svg>